<svg width="72" height="72" viewBox="0 0 72 72" fill="none" xmlns="http://www.w3.org/2000/svg">
  <rect width="72" height="72" rx="18" fill="url(#paint0_linear_0_1)"/>
  <rect x="8" y="8" width="56" height="56" rx="14" fill="white" fill-opacity="0.94"/>
  <path d="M36 19C39.3137 19 42 21.6863 42 25C42 25.9189 41.7935 26.7896 41.4246 27.5682L47.2188 31.1794C48.2627 30.1384 49.7038 29.5 51.2941 29.5C54.4782 29.5 57.0588 32.0806 57.0588 35.2647C57.0588 38.4488 54.4782 41.0294 51.2941 41.0294C49.7038 41.0294 48.2627 40.391 47.2188 39.35L41.4246 42.9612C41.7935 43.7398 42 44.6105 42 45.5294C42 48.8431 39.3137 51.5294 36 51.5294C32.6863 51.5294 30 48.8431 30 45.5294C30 44.6105 30.2065 43.7398 30.5754 42.9612L24.7812 39.35C23.7373 40.391 22.2962 41.0294 20.7059 41.0294C17.5218 41.0294 14.9412 38.4488 14.9412 35.2647C14.9412 32.0806 17.5218 29.5 20.7059 29.5C22.2962 29.5 23.7373 30.1384 24.7812 31.1794L30.5754 27.5682C30.2065 26.7896 30 25.9189 30 25C30 21.6863 32.6863 19 36 19ZM36 30.6471C33.0355 30.6471 30.6471 33.0355 30.6471 36C30.6471 38.9645 33.0355 41.3529 36 41.3529C38.9645 41.3529 41.3529 38.9645 41.3529 36C41.3529 33.0355 38.9645 30.6471 36 30.6471Z" fill="url(#paint1_linear_0_1)"/>
  <defs>
    <linearGradient id="paint0_linear_0_1" x1="7.5" y1="7" x2="64.5" y2="65" gradientUnits="userSpaceOnUse">
      <stop stop-color="#F59E0B"/>
      <stop offset="0.45" stop-color="#8B5CF6"/>
      <stop offset="1" stop-color="#EC4899"/>
    </linearGradient>
    <linearGradient id="paint1_linear_0_1" x1="18" y1="18" x2="54" y2="54" gradientUnits="userSpaceOnUse">
      <stop stop-color="#7C3AED"/>
      <stop offset="1" stop-color="#DB2777"/>
    </linearGradient>
  </defs>
</svg>
